<svg xmlns="http://www.w3.org/2000/svg" xml:space="preserve" style="enable-background:new 0 0 44 44" viewBox="0 0 44 44"><path d="M37.4 32.4c0 1.6-.8 1.9-.8 1.9L21.5 43c-.5.2-1 .2-1.5 0 0 0-14.8-8.6-15.3-9-.3-.2-.5-.6-.6-1V15.2c0-.8 1-1.3 1-1.3l14.8-8.5c.6-.3 1.2-.3 1.8 0l14.5 8.4c.8.3 1.3 1.2 1.2 2.1v16.5zm-5.9-17L21.4 9.5c-.4-.2-1-.2-1.4 0L8.3 16.1s-.8.5-.8 1.1v13.9c0 .3.2.6.4.8.4.3 12 7 12 7 .4.2.8.2 1.2 0 .7-.4 11.8-6.8 11.8-6.8s.7-.3.7-1.5v-3.5l-13 7.9v-3c.1-.8.4-1.5 1-2.1L33.2 23c.3-.4.5-.9.5-1.5v-3.1l-13.1 7.9v-3.2c0-.7.3-1.4.8-1.8l10.1-5.9zm9.6-11.2c0-.2-.1-.4-.4-.4H38V1.1c0-.2-.3-.3-.5-.2l-1.5.2c-.2 0-.3.1-.3.2v2.5H33c-.2 0-.3.2-.4.4v2h3V9c0 .2.3.3.5.2l1.6-.2c.2 0 .3-.1.3-.2V6.1h3.1V4.2z" style="fill-rule:evenodd;clip-rule:evenodd;fill:#409eff"/></svg>